<?xml version="1.0" encoding="utf-8"?>
<!-- Generator: Adobe Illustrator 21.1.0, SVG Export Plug-In . SVG Version: 6.00 Build 0)  -->
<svg version="1.1" id="Capa_1" xmlns="http://www.w3.org/2000/svg" xmlns:xlink="http://www.w3.org/1999/xlink" x="0px" y="0px"
	 viewBox="0 0 500 500" style="enable-background:new 0 0 500 500;" xml:space="preserve">
<style type="text/css">
	.st0{fill:#FFFFFF;}
	.st1{fill:#ABBEE2;}
	.st2{fill:#3CAF77;}
	.st3{fill:#EFAE3A;}
	.st4{fill:#777586;}
</style>
<g>
	<path class="st0" d="M309.7,138.3c-0.4-3.9-1.7-8.2-3.8-12.8c-0.8-1.8-2-3.4-3.6-4.8c-1.2-1.1-2.4-2.2-3.6-3.4
		c-3.5-3.5-8.1-6-13.6-7.6c-5.2-1.4-10.8-2.3-16.6-2.6c-5.7-0.3-11.4-0.2-17,0.3c-5.5,0.5-10.3,1-14.3,1.6
		c-24.6,3.8-48.7,10.6-71.8,20c-23,9.4-44.8,20.8-64.7,33.7c-20.9,13.7-39.7,29.5-55.9,46.9c-16.3,17.6-29.1,37.8-38,60.2
		c-1.6,4.1-3,8.3-3.9,12.6c-1,4.3-1.5,8.6-1.6,12.7c-0.1,4.2,0.4,8.2,1.4,12c1,3.9,2.8,7.5,5.3,10.6c4.5,5.7,10.1,9.6,16.7,11.5
		c6.3,1.8,13.2,2.5,20.5,1.8c7.1-0.6,14.5-2.1,22.1-4.5c7.4-2.3,14.7-5,21.7-8.1c6.9-3,13.4-6.1,19.3-9.2c5.8-3.1,10.8-5.7,14.6-7.9
		c9.2-5.2,18.3-10.7,27.2-16.3c9-5.7,17.9-11.4,26.3-17c8.6-5.6,17.4-11.2,26.1-16.6c6.5-4,13.2-7.9,20-11.6
		c-1.1,2.8-2.3,5.8-3.5,8.9c-1.3,3.3-2.5,5.8-3.4,7.5c-2.6,4.4-5.2,9-7.7,13.4c-2.2,4-4.6,7.9-7,11.9c-18,3-35.3,8.3-51.7,15.8
		c-16.7,7.7-32.3,16.8-46.3,27c-2,1.4-4.7,3.5-8.1,6.2c-3.4,2.7-6.9,5.9-10.4,9.4c-3.6,3.5-7,7.4-10,11.5c-3.2,4.3-5.6,8.6-6.9,12.9
		c-1.4,4.6-1.5,9.1-0.3,13.3c1.3,4.5,4.6,8.4,9.9,11.6c3.4,2,7.3,3.1,11.6,3.1c0.8,0,1.7,0,2.5-0.1c5-0.4,10.3-1.7,15.6-3.6
		c5.3-2,10.6-4.5,15.9-7.6c5.2-3,10-6.1,14.5-9.1c4.4-3,8.3-5.8,11.6-8.4c3.2-2.5,5.6-4.4,6.9-5.6c11-9.1,21.3-19.2,30.6-30
		c8.9-10.5,17.3-21.6,24.9-33.1c4.6-0.8,9.2-1.4,14-1.9c5.2-0.5,10.6-0.9,16.2-1.3l0.7,0l0.6-0.3c1.4-0.8,2.4-1.3,3-1.7l2-1.3
		c0.8-0.5,1.9-1.3,3.3-2.4c1.3-1,3.3-2.4,6.3-4.5l8.8-6.3l-10.8,0.5c-11.4,0.5-22.8,1.4-33.9,2.8c3.6-6.2,6.9-12.5,9.9-18.7
		c3.9-8.2,7.6-16.6,10.9-24.9l0.1-0.3c0.4-1.2,0.5-2.2,0.5-3c0-0.8-0.2-1.8-0.5-3l-0.1-0.4l-0.2-0.3c-1-1.7-2-3-3-3.9l-3-2.6
		c-1.3-1.4-3-2.3-4.8-2.5c-1.5-0.2-3.1,0-4.7,0.5l-0.4,0.1l-0.3,0.2c-10.9,6.1-21.6,12.6-31.9,19.3c-10.2,6.7-20.5,13.4-30.7,20.1
		c-10.2,6.7-20.6,13.4-31,19.8c-10.3,6.4-21.1,12.5-32.2,18.1c-4.6,2.4-9.7,4.8-15,7.3c-5.3,2.4-10.8,4.6-16.3,6.5
		c-5.5,1.9-11.2,3.4-16.9,4.5c-3.9,0.7-7.8,1.1-11.5,1.1c-1.6,0-3.1-0.1-4.7-0.2c-5.8-0.4-9.9-2-12.3-4.7c-2.5-2.9-4-6.4-4.6-10.6
		c-0.5-4.4-0.3-9.1,0.7-14.1c1.1-5.1,2.3-9.8,3.7-13.8l0.1-0.2c0.3-0.9,0.5-1.6,0.7-2.3c0.2-0.7,0.5-1.4,0.7-2
		c4.2-9.4,9.4-18.5,15.4-27c6.1-8.6,12.8-16.8,20.2-24.5c7.4-7.7,15.4-15.1,23.7-21.9c8.4-6.9,17.2-13.4,26.2-19.4
		c9.4-6.4,20.3-12.7,32.3-18.8c12-6.1,24.7-11.7,37.7-16.6c13-4.9,26.3-9,39.6-12.2c13.2-3.2,25.9-5,37.9-5.4
		c4.3-0.2,8.4-0.1,12.3,0.4c3.9,0.5,7.7,1.3,11.2,2.5c4.3,1.6,7.4,3.9,9.2,6.8c1.9,3.1,2.9,6.3,2.9,9.7c0,3.5-0.9,7.1-2.6,10.7
		c-1.8,3.6-4.1,6.7-7.1,9.1l-3.4,2.9l14.3,8.9l1.8-2.2c3-3.6,5.5-7.2,7.6-10.5c2.2-3.5,3.8-7,4.8-10.6
		C309.8,146.1,310.1,142.2,309.7,138.3z M188.4,299.7c-1.7,2.2-3.4,4.4-5.2,6.5c-6.6,7.6-14.3,15.9-22.7,24.7
		c-8.4,8.7-17.5,16.8-27.2,24.1c-6.1,4.7-12.5,8.9-19,12.4c-6.4,3.5-13.1,6.3-19.7,8.3c-1.2,0.3-2.5,0.5-3.9,0.7
		c-1.2,0.1-2.4,0.1-3.4-0.2c-1-0.2-1.9-0.6-2.7-1.2c-0.2-0.1-0.5-0.3-0.5-1.3l0-0.2c-0.2-1.4-0.2-2.9,0.2-4.3c0.3-1.5,0.9-3,1.7-4.5
		c0.8-1.6,1.8-3.1,2.8-4.6c1-1.4,2.1-2.9,3.3-4.2c2.6-3.2,5.8-6.4,9.5-9.7c3.7-3.3,7.7-6.5,11.8-9.5c4.1-3.1,8.4-6,12.5-8.7
		c4.2-2.7,8.2-5.2,12-7.3l0.1-0.1c3.7-2.3,7.2-4.3,10.5-5.9c3.4-1.6,7.2-3.4,11.3-5.3c6.3-2.7,12.6-5.1,18.7-7
		C181.8,301.6,185.1,300.6,188.4,299.7z"/>
	<g>
		<g>
			<path class="st0" d="M225.5,308.7c-1.1-0.4-1.9-0.8-2.5-1.5c-0.6-0.6-0.9-1.4-0.9-2.2c0-0.9,0.3-1.6,0.9-2.2
				c0.6-0.6,1.4-0.9,2.2-0.9c0.9,0,1.6,0.3,2.2,0.9c0.3,0.3,0.6,0.7,0.7,1.1l-0.8,0.3c-0.1-0.3-0.3-0.6-0.5-0.8
				c-0.5-0.5-1-0.7-1.6-0.7c-0.6,0-1.2,0.2-1.6,0.7c-0.5,0.5-0.7,1-0.7,1.7c0,0.6,0.2,1.2,0.7,1.7c0.4,0.4,1,0.8,1.8,1.1
				c1.2,0.4,2.2,1,3,1.8c0.9,0.9,1.3,1.9,1.3,3.1c0,1.2-0.4,2.3-1.3,3.1s-1.9,1.3-3.1,1.3c-1.2,0-2.3-0.4-3.1-1.3
				c-0.7-0.7-1.1-1.5-1.2-2.4l0.8-0.3c0.1,0.8,0.4,1.5,1,2.1c0.7,0.7,1.6,1.1,2.5,1.1c1,0,1.8-0.4,2.5-1.1c0.7-0.7,1.1-1.6,1.1-2.5
				c0-1-0.4-1.8-1.1-2.5C227.2,309.6,226.4,309.1,225.5,308.7z"/>
			<path class="st0" d="M238.9,302v0.8h-6.6v6.2h6.6v0.8h-6.6v6.2h6.6v0.8h-7.5v-15H238.9z"/>
			<path class="st0" d="M244.9,311.8h-2.8v5.2h-0.8v-15h3.9c1.1,0.2,2.1,0.6,2.9,1.4c1,1,1.4,2.1,1.4,3.4c0,1.4-0.5,2.5-1.4,3.5
				c-0.7,0.7-1.4,1.1-2.3,1.3l3.4,5.3h-1L244.9,311.8z M242.1,302.9v8.1h2.5c1.1,0,2.1-0.4,2.8-1.2s1.2-1.7,1.2-2.9
				c0-1.1-0.4-2.1-1.2-2.8c-0.8-0.8-1.7-1.2-2.8-1.2H242.1z"/>
			<path class="st0" d="M260.6,302h0.9l-5.4,15h-0.5l-5.4-15h0.9l4.8,13.4L260.6,302z"/>
			<path class="st0" d="M263.7,302v15h-0.8v-15H263.7z"/>
			<path class="st0" d="M277.9,314.6l0.6,0.6c-1.5,1.3-3.2,2-5.2,2c-2.1,0-3.9-0.7-5.4-2.2c-1.5-1.5-2.2-3.3-2.2-5.4
				c0-2.1,0.7-3.9,2.2-5.4c1.5-1.5,3.3-2.2,5.4-2.2c2,0,3.7,0.7,5.2,2l-0.6,0.6c-1.3-1.1-2.8-1.7-4.5-1.7c-1.9,0-3.5,0.7-4.8,2
				c-1.3,1.3-2,2.9-2,4.8c0,1.9,0.7,3.5,2,4.8c1.3,1.3,2.9,2,4.8,2C275.1,316.3,276.6,315.8,277.9,314.6z"/>
			<path class="st0" d="M281.3,302v15h-0.8v-15H281.3z"/>
			<path class="st0" d="M296.4,304.1c1.5,1.5,2.2,3.3,2.2,5.4c0,2.1-0.7,3.9-2.2,5.4s-3.3,2.2-5.4,2.2c-2.1,0-3.9-0.7-5.4-2.2
				c-1.5-1.5-2.2-3.3-2.2-5.4c0-2.1,0.7-3.9,2.2-5.4c1.5-1.5,3.3-2.2,5.4-2.2C293.1,301.8,294.9,302.6,296.4,304.1z M291,302.7
				c-1.9,0-3.5,0.7-4.8,2c-1.3,1.3-2,2.9-2,4.8c0,1.9,0.7,3.5,2,4.8c1.3,1.3,2.9,2,4.8,2c1.9,0,3.5-0.7,4.8-2s2-2.9,2-4.8
				c0-1.9-0.7-3.5-2-4.8S292.8,302.7,291,302.7z"/>
			<path class="st0" d="M304.5,308.7c-1.1-0.4-1.9-0.8-2.5-1.5c-0.6-0.6-0.9-1.4-0.9-2.2c0-0.9,0.3-1.6,0.9-2.2s1.4-0.9,2.2-0.9
				c0.9,0,1.6,0.3,2.2,0.9c0.3,0.3,0.6,0.7,0.7,1.1l-0.8,0.3c-0.1-0.3-0.3-0.6-0.6-0.8c-0.5-0.5-1-0.7-1.6-0.7
				c-0.6,0-1.2,0.2-1.6,0.7c-0.5,0.5-0.7,1-0.7,1.7c0,0.6,0.2,1.2,0.7,1.7c0.4,0.4,1,0.8,1.8,1.1c1.2,0.4,2.2,1,3,1.8
				c0.9,0.9,1.3,1.9,1.3,3.1c0,1.2-0.4,2.3-1.3,3.1c-0.9,0.9-1.9,1.3-3.1,1.3c-1.2,0-2.3-0.4-3.1-1.3c-0.7-0.7-1.1-1.5-1.2-2.4
				l0.8-0.3c0.1,0.8,0.4,1.5,1,2.1c0.7,0.7,1.6,1.1,2.6,1.1s1.8-0.4,2.5-1.1c0.7-0.7,1.1-1.6,1.1-2.5c0-1-0.4-1.8-1.1-2.5
				C306.2,309.6,305.4,309.1,304.5,308.7z"/>
			<path class="st0" d="M327.6,314.6l0.6,0.6c-1.5,1.3-3.2,2-5.2,2c-2.1,0-3.9-0.7-5.4-2.2c-1.5-1.5-2.2-3.3-2.2-5.4
				c0-2.1,0.7-3.9,2.2-5.4c1.5-1.5,3.3-2.2,5.4-2.2c2,0,3.7,0.7,5.2,2l-0.6,0.6c-1.3-1.1-2.8-1.7-4.5-1.7c-1.9,0-3.5,0.7-4.8,2
				c-1.3,1.3-2,2.9-2,4.8c0,1.9,0.7,3.5,2,4.8c1.3,1.3,2.9,2,4.8,2C324.8,316.3,326.3,315.8,327.6,314.6z"/>
			<path class="st0" d="M342.6,304.1c1.5,1.5,2.2,3.3,2.2,5.4c0,2.1-0.7,3.9-2.2,5.4s-3.3,2.2-5.4,2.2c-2.1,0-3.9-0.7-5.4-2.2
				s-2.2-3.3-2.2-5.4c0-2.1,0.7-3.9,2.2-5.4c1.5-1.5,3.3-2.2,5.4-2.2C339.3,301.8,341.1,302.6,342.6,304.1z M337.2,302.7
				c-1.9,0-3.5,0.7-4.8,2s-2,2.9-2,4.8c0,1.9,0.7,3.5,2,4.8s2.9,2,4.8,2c1.9,0,3.5-0.7,4.8-2s2-2.9,2-4.8c0-1.9-0.7-3.5-2-4.8
				S339.1,302.7,337.2,302.7z"/>
			<path class="st0" d="M350.4,311.8h-2.8v5.2h-0.8v-15h3.9c1.1,0.2,2.1,0.6,2.9,1.4c1,1,1.4,2.1,1.4,3.4c0,1.4-0.5,2.5-1.4,3.5
				c-0.7,0.7-1.4,1.1-2.3,1.3l3.4,5.3h-1L350.4,311.8z M347.6,302.9v8.1h2.5c1.1,0,2.1-0.4,2.8-1.2s1.2-1.7,1.2-2.9
				c0-1.1-0.4-2.1-1.2-2.8c-0.8-0.8-1.7-1.2-2.8-1.2H347.6z"/>
			<path class="st0" d="M357.7,311.8v5.2h-0.8v-15h3.9c1.1,0.2,2.1,0.6,2.9,1.4c1,1,1.4,2.1,1.4,3.4c0,1.4-0.5,2.5-1.4,3.5
				c-1,1-2.1,1.4-3.4,1.4H357.7z M357.7,302.9v8.1h2.5c1.1,0,2.1-0.4,2.8-1.2s1.2-1.7,1.2-2.9c0-1.1-0.4-2.1-1.2-2.8
				c-0.8-0.8-1.7-1.2-2.8-1.2H357.7z"/>
			<path class="st0" d="M379.6,304.1c1.5,1.5,2.2,3.3,2.2,5.4c0,2.1-0.7,3.9-2.2,5.4s-3.3,2.2-5.4,2.2c-2.1,0-3.9-0.7-5.4-2.2
				s-2.2-3.3-2.2-5.4c0-2.1,0.7-3.9,2.2-5.4c1.5-1.5,3.3-2.2,5.4-2.2C376.3,301.8,378.1,302.6,379.6,304.1z M374.2,302.7
				c-1.9,0-3.5,0.7-4.8,2s-2,2.9-2,4.8c0,1.9,0.7,3.5,2,4.8s2.9,2,4.8,2c1.9,0,3.5-0.7,4.8-2c1.3-1.3,2-2.9,2-4.8
				c0-1.9-0.7-3.5-2-4.8C377.7,303.3,376.1,302.7,374.2,302.7z"/>
			<path class="st0" d="M387.3,311.8h-2.8v5.2h-0.8v-15h3.9c1.1,0.2,2.1,0.6,2.9,1.4c1,1,1.4,2.1,1.4,3.4c0,1.4-0.5,2.5-1.4,3.5
				c-0.7,0.7-1.4,1.1-2.3,1.3l3.4,5.3h-1L387.3,311.8z M384.5,302.9v8.1h2.5c1.1,0,2.1-0.4,2.8-1.2c0.8-0.8,1.2-1.7,1.2-2.9
				c0-1.1-0.4-2.1-1.2-2.8c-0.8-0.8-1.7-1.2-2.8-1.2H384.5z"/>
			<path class="st0" d="M399,302l5.4,15h-0.9l-2.4-6.6H396l-2.4,6.6h-0.9l5.5-15H399z M400.8,309.6l-2.3-6.3l-2.3,6.3H400.8z"/>
			<path class="st0" d="M408.6,302.9V317h-0.8v-14.1H404V302h8.4v0.8H408.6z"/>
			<path class="st0" d="M414.9,302v15h-0.8v-15H414.9z"/>
			<path class="st0" d="M426.6,302h0.9l-5.4,15h-0.5l-5.4-15h0.9l4.8,13.4L426.6,302z"/>
			<path class="st0" d="M441.2,304.1c1.5,1.5,2.2,3.3,2.2,5.4c0,2.1-0.7,3.9-2.2,5.4c-1.5,1.5-3.3,2.2-5.4,2.2
				c-2.1,0-3.9-0.7-5.4-2.2s-2.2-3.3-2.2-5.4c0-2.1,0.7-3.9,2.2-5.4c1.5-1.5,3.3-2.2,5.4-2.2C437.9,301.8,439.7,302.6,441.2,304.1z
				 M435.8,302.7c-1.9,0-3.5,0.7-4.8,2s-2,2.9-2,4.8c0,1.9,0.7,3.5,2,4.8s2.9,2,4.8,2c1.9,0,3.5-0.7,4.8-2c1.3-1.3,2-2.9,2-4.8
				c0-1.9-0.7-3.5-2-4.8C439.3,303.3,437.7,302.7,435.8,302.7z"/>
			<path class="st0" d="M449.4,308.7c-1.1-0.4-1.9-0.8-2.5-1.5c-0.6-0.6-0.9-1.4-0.9-2.2c0-0.9,0.3-1.6,0.9-2.2s1.4-0.9,2.2-0.9
				c0.9,0,1.6,0.3,2.2,0.9c0.3,0.3,0.6,0.7,0.7,1.1l-0.8,0.3c-0.1-0.3-0.3-0.6-0.6-0.8c-0.5-0.5-1-0.7-1.6-0.7
				c-0.6,0-1.2,0.2-1.6,0.7c-0.5,0.5-0.7,1-0.7,1.7c0,0.6,0.2,1.2,0.7,1.7c0.4,0.4,1,0.8,1.8,1.1c1.2,0.4,2.2,1,3,1.8
				c0.9,0.9,1.3,1.9,1.3,3.1c0,1.2-0.4,2.3-1.3,3.1c-0.9,0.9-1.9,1.3-3.1,1.3c-1.2,0-2.3-0.4-3.1-1.3c-0.7-0.7-1.1-1.5-1.2-2.4
				l0.8-0.3c0.1,0.8,0.4,1.5,1,2.1c0.7,0.7,1.6,1.1,2.6,1.1c1,0,1.8-0.4,2.5-1.1c0.7-0.7,1.1-1.6,1.1-2.5c0-1-0.4-1.8-1.1-2.5
				C451,309.6,450.3,309.1,449.4,308.7z"/>
		</g>
	</g>
	<g>
		<path class="st0" d="M348.7,207.8c0.9-0.4,2-1.2,2.2-2.3c0.2-1.1-0.6-2.1-2.2-3.2c-1.7-1.1-3-1.3-4-0.8c-0.4,0.2-0.8,0.6-1,1.1
			c-0.2-0.5-0.6-0.9-1-1.1c-1-0.6-2.3-0.3-4,0.8c-1.6,1.1-2.4,2.1-2.2,3.2c0.2,1.1,1.3,1.8,2.2,2.3c-0.9,0.4-2,1.2-2.2,2.3
			c-0.2,1.1,0.6,2.1,2.2,3.2c1.1,0.7,2,1.1,2.8,1.1c0.4,0,0.8-0.1,1.2-0.3c0.4-0.2,0.8-0.6,1-1.1c0.2,0.5,0.6,0.9,1,1.1
			c0.3,0.2,0.7,0.3,1.2,0.3c0.8,0,1.8-0.4,2.8-1.1c1.6-1.1,2.4-2.1,2.2-3.2C350.7,209,349.6,208.3,348.7,207.8z M347.7,211.6l-4-3.6
			l-4,3.6l3.7-4l-3.7-4l4,3.6l4-3.6l-3.7,4L347.7,211.6z"/>
		<path class="st0" d="M367.3,207.8c0.9-0.4,2-1.2,2.2-2.3c0.2-1.1-0.6-2.1-2.2-3.2c-1.7-1.1-3-1.3-4-0.8c-0.4,0.2-0.8,0.6-1,1.1
			c-0.2-0.5-0.6-0.9-1-1.1c-1-0.6-2.3-0.3-4,0.8c-1.6,1.1-2.4,2.1-2.2,3.2c0.2,1.1,1.3,1.8,2.2,2.3c-0.9,0.4-2,1.2-2.2,2.3
			c-0.2,1.1,0.6,2.1,2.2,3.2c1.1,0.7,2,1.1,2.8,1.1c0.4,0,0.8-0.1,1.2-0.3c0.4-0.2,0.8-0.6,1-1.1c0.2,0.5,0.6,0.9,1,1.1
			c0.3,0.2,0.7,0.3,1.2,0.3c0.8,0,1.8-0.4,2.8-1.1c1.6-1.1,2.4-2.1,2.2-3.2C369.4,209,368.3,208.3,367.3,207.8z M366.4,211.6l-4-3.6
			l-4,3.6l3.7-4l-3.7-4l4,3.6l4-3.6l-3.7,4L366.4,211.6z"/>
		<g>
			<path class="st0" d="M435.1,239.7c0.3-0.5,0.5-1,0.8-1.5C435.6,238.8,435.4,239.3,435.1,239.7z"/>
			<path class="st0" d="M497.2,296.4c-0.4-1.7-1-3.2-1.9-4.5c-1.3-2-2.7-2.8-4.1-2.3c-1.5,0.5-2.9,1.1-4.3,1.9
				c-1.4,0.8-2.9,1.3-4.3,1.5c-1.4,0.2-2.8,0.2-4.3,0.1c-0.1,0-0.1,0-0.2,0c-1.6-0.3-3.1-0.7-4.6-1.1c-16.4-5.2-28.9-20.4-34.1-27.6
				c-1.7-2.4-2.6-3.9-2.6-3.9c7.5-1.3,14.8-3.6,21.9-7c6.8-3.3,11.9-8,15.4-14c3.3-6,0.3-10.8-0.1-11.4c-1.1-1.4-2.5-2.5-4-3.6
				c-2.2-1.4-4.6-2.3-7.2-2.9c-2.4-0.5-4.5-0.4-6.2,0.3c-0.4,0.2-1.1,0.5-1.4,1c0,0.1,0,0.2,0,0.4c0.2,0.2,0.6,0.4,1.1,0.5
				c0.2,0,0.4,0.1,0.5,0.1c0.1,0,0.2,0,0.3,0c0.5,0.1,1.1,0.2,1.7,0.4c0,0,0.1,0,0.1,0c0,0,0,0,0.1,0c0.6,0.2,1.1,0.4,1.3,0.6
				c0,0,0,0.1,0.1,0.1c0,0,0,0,0,0c0.1,0.2,0,0.5-0.1,0.7c0,0,0,0,0,0c-2.3,5.8-6.4,10.4-12.1,13.7c-5.8,3.3-11,5.6-15.6,6.8
				c0.6-2.2,1.7-4.6,2.7-6.6c0.2-0.4,0.5-0.9,0.8-1.5c1.3-2.3,2.3-3.9,2.3-3.9l0,0c0.1-0.1,0.2-0.2,0.2-0.4
				c2.3-3.7,4.9-7.9,7.8-12.7c2.9-4.8,5.9-9.8,8.9-15c3-5.2,5.7-9.9,8-14.3c1.4-2.8,2.3-5,2.6-6.7c0.3-1.6-0.4-3.1-2.2-4.4
				c-1.4-1.3-3.9-2.2-7.4-2.7c-2.3-0.5-4.5-0.4-6.5,0.2c-2,0.6-3.6,1.6-4.8,2.9c0,0.3-0.9,2.3-2.8,6.3c-1.9,3.9-4.2,8.9-6.9,15
				c-2.7,6.1-5.9,12.9-9.3,20.5c-3.5,7.6-6.8,15.2-10,22.6c-0.5,1.1-0.9,2.2-1.4,3.3c-3.2,2.3-6.5,5.4-10.1,9.4
				c-3.6,4.1-7.2,8.1-10.8,12c-3.6,3.9-6.9,7.4-10,10.5c-3,3-5.3,4.6-6.7,4.6c-4,0-6.1-2.8-6.1-8.4c0-5.6,2.1-11.7,6.3-18.3
				c4.2-6.6,8.7-12,13.7-16.4c3.2-2.8,5.6-4.8,7.4-6.1c1.7-1.3,3.3-2.2,4.8-2.7c2.9-0.8,4.3-0.4,4.3,1c0,1.4-0.4,3.4-1.3,5.9
				c-0.6,1.3-0.1,2.1,1.5,2.5c1.6,0.4,3.1-0.3,4.6-2.1c3.2-4.1,4.6-7.5,4.3-10.5c-0.3-2.9-1.7-5-4.1-6.3c-2.5-1.3-5.7-1.6-9.8-1.1
				c-4.1,0.5-8.2,2-12.6,4.6c-1.7,1-4.4,3-8,5.9c-3.6,2.9-7.2,6.5-10.6,10.8c-3.5,4.3-6.5,9.2-9.1,14.6c-1.5,3.2-2.6,6.6-3.2,10.2
				c-0.6,0.9-1.2,1.8-1.8,2.6c-0.4,0.6-5.5,8.7-7.1,8.7V276c0.6-2.5,1.7-6,3.5-10.3c1.7-4.3,3.6-8.7,5.6-13.3
				c2-4.6,4.1-8.9,6.3-12.9c2.2-4.1,4.1-7.1,5.9-9.1c1.2-1,1.7-2,1.7-3c-0.9-3-3.1-4.6-6.7-4.8c-3.6-0.1-6.6,1.2-8.9,4
				c-1.7,2.3-3.2,4.5-4.3,6.7c-1.2,2.2-2.3,4.4-3.5,6.7c-2.3,4.6-5.2,10.3-8.7,17.1c-3.5,6.8-6.9,12.9-10.4,18.3
				c-4.3,6.6-8,9.7-10.8,9.3c-2.9-0.4-3.6-3.7-2.2-10.1c0.6-3,1.5-6.8,2.8-11.4c1.3-4.6,2.8-9.1,4.6-13.5c1.7-4.4,3.8-8.5,6.1-12.2
				c2.3-3.7,4.6-6.4,6.9-8.2c1.4-1.3,1.9-2.4,1.3-3.4c-0.3-1.5-1.2-2.7-2.6-3.4c-1.4-0.8-3.1-1.2-5-1.3c-1.9-0.1-3.8,0.1-5.6,0.8
				c-1.9,0.6-3.4,1.7-4.6,3.2c-0.6,0.8-1.6,3-3,6.7c-1.5,3.7-3.3,8.1-5.6,13.1c-0.1,0.3-0.3,0.7-0.4,1.1c-0.3,0-0.6,0-0.9,0.1
				c-1.2,1.3-2.8,3.2-4.8,5.9c-2,2.7-4.2,5.6-6.5,8.9c-2.3,3.3-4.7,6.5-7.2,9.7c-2.5,3.2-4.6,5.8-6.3,7.8c-0.3,0.5-0.9,1-1.7,1.5
				c-0.9,0.5-1.6,0.8-2.2,0.8c-1.2-0.5-1.6-2.4-1.3-5.7c0.9-3.5,2.2-8.1,4.1-13.7c1.9-5.6,4.3-11.7,7.2-18.3
				c1.7-4.3,4.1-9.1,7.2-14.5c3-5.3,6.1-10.6,9.3-15.8c3.2-5.2,6.2-10.1,9.1-14.6c2.9-4.6,5.1-8.2,6.5-11c1.4-2.5,2.2-4.6,2.4-6.1
				c0.1-1.5-0.5-2.9-2-4.2c-1.5-1.3-3.8-2.2-6.9-2.7c-2.3-0.3-4.4-0.1-6.3,0.4c-1.9,0.5-3.3,1.4-4.1,2.7c-3.2,6.6-6.1,12.5-8.7,17.9
				c-2.6,5.3-5.4,11.3-8.5,18.1c-3,6.7-6,13.6-8.9,20.5c-2.9,7-5.6,13.8-8,20.3c-2.5,6.6-4.4,12.4-5.9,17.5
				c-1.4,5.1-1.7,9.5-0.9,13.3c0.9,3.8,2.3,6.3,4.3,7.6c1.4,1.5,3.8,2.2,7.2,2.1c3.3-0.1,6.1-1.5,8.5-4c2.9-3.3,6.7-8.7,11.5-16.4
				c2.8-4.5,5.7-9,8.6-13.5c-1.8,5.6-2.9,10.9-3.3,16c-0.4,5.2,0.2,9.5,2,12.9c1.7,3.4,5.4,5.1,10.8,5.1c2.6,0,5.1-0.7,7.6-2.1
				c2.5-1.4,6.1-5.8,11.1-13.1l-0.4,0.8c0.6,2.3,1.5,4.8,2.8,7.4c1.3,2.7,2.2,4.2,2.8,4.8c1.4,1.5,3.8,2.2,7.2,1.9
				c3.3-0.3,5.7-1.5,7.2-3.8c1.4-2.3,2.7-4.6,3.9-6.8c0.1-0.2,0.2-0.3,0.3-0.5c0.3,1,0.6,2,1,2.8c1.2,2.3,2.6,4.1,4.3,5.5
				c1.7,1.4,3.5,2.3,5.2,2.7c1.7,0.4,3.3,0.6,4.8,0.6c3.5,0,6.8-1.2,10-3.6c3.2-2.4,6.4-5.5,9.8-9.3c3.3-3.8,6.8-8.1,10.4-12.9
				c1.2-1.7,2.5-3.3,3.8-5c-0.4,1-0.8,2-1.2,2.9c-2.7,6.5-4.8,11.7-6.3,15.8c-1.2,3.6-1.2,6.3-0.2,8.2c1,1.9,2.4,3,4.1,3.4
				c1.7,0.4,3.6,0,5.6-1.1c2-1.1,3.5-3.1,4.3-5.9c0.9-2,2.4-5.6,4.6-10.8c2.2-5.2,4.4-10.5,6.7-15.8c1.4-1.5,2.7-1.3,3.7,0.6
				c1,1.9,1.8,3.2,2.4,4c0.5,0.9,0.9,1.7,1.3,2.4c6.6,10.7,25,37,49.3,44.5c2.2,0.5,5.2,0.7,8.3-0.4
				C494.7,309.9,498.7,306,497.2,296.4z"/>
			<path class="st0" d="M435.9,238.2c0.6-1,1.4-2.3,2.3-3.9l0,0C438.3,234.4,437.2,236,435.9,238.2z"/>
		</g>
	</g>
</g>
</svg>
