<?xml version="1.0" encoding="utf-8"?>
<!-- Generator: Adobe Illustrator 21.1.0, SVG Export Plug-In . SVG Version: 6.00 Build 0)  -->
<svg version="1.1" id="Capa_1" xmlns="http://www.w3.org/2000/svg" xmlns:xlink="http://www.w3.org/1999/xlink" x="0px" y="0px"
	 viewBox="0 0 500 500" style="enable-background:new 0 0 500 500;" xml:space="preserve">
<style type="text/css">
	.st0{fill:#FFFFFF;}
	.st1{fill:#ABBEE2;}
	.st2{fill:#3CAF77;}
	.st3{fill:#EFAE3A;}
	.st4{fill:#777586;}
</style>
<g>
	<g>
		<path class="st0" d="M486.7,250c0-131.1-106.2-236.7-236.7-236.7C119.3,13.2,13.3,118.8,13.3,250c0,130.5,106.1,236.9,236.7,236.9
			C380.5,486.9,486.7,380.5,486.7,250z"/>
	</g>
	<g>
		<g>
			<path class="st3" d="M363.4,189.8h-11.1c0-7.2,0-14.3,0-21.8c0-7.4-5.7-13-12.9-13c-4.4,0-8.9,0-13.2,0c-13.3,0-26.2,0-39.7,0
				c-5.6,0-11.6,0.2-14.9,6c-2.3,4.7-1.6,10.3-1.6,16c0,4.2,0,8.6,0,12.8h-68.3c-1.3-7.5-8-13.6-16-13.6h-49.4
				c-9.1,0-16.1,6.9-16.1,15v138.5c0,8.3,7,15.1,16.1,15.1h40.1h9.2h177.5c8.5,0,16-7.1,16-15.8V205.6
				C379.4,196.7,371.9,189.8,363.4,189.8z M339.8,168.5L339.8,168.5L339.8,168.5z M338.8,167.6C338.8,167.3,338.8,167.3,338.8,167.6
				L338.8,167.6z M283.5,168.5c1.3,0,2.3,0,3.4,0c6.1,0,12.2,0,18.3,0c8,0,15.7,0,23.8,0c2.7,0,5.2,0,8,0c0.3,0,1.3,0,2,0
				c0,1.1,0,2,0,3.3c0,3.8,0,7.4,0,11.3c0,2.2,0,4.6,0,6.7h-55.6c0-0.9,0-2,0-3.3C283.5,180.4,283.5,174.1,283.5,168.5L283.5,168.5z
				 M204.1,243.2c0,26,0,52,0,78c0,10.8-17.5,10.8-17.5-0.3c0-24.4,0-49,0-74.1c0-3.9,0-8.3,0-12.7c0-2.3,0-4.7,0-6.9
				c0-1.7,0-3.1,0-4.5c-0.6,0-1.4,0-1.4,0c-0.8-0.6-1.6-0.6-2-0.6c-3,0-6.1,0-8.8,0c-5.6,0-11.6,0-17.4,0
				c-11.3,0-11.1-17.2,0.2-17.2c6.1,0,12.2,0,18.6,0c7.4,0,16.8-0.8,23,4.7C206.9,217.1,204.1,232.9,204.1,243.2z M311.1,320.3
				c-29.5,0-53.3-23.8-53.3-53c0-29.3,23.8-53.1,53.3-53.1c29.1,0,53.3,23.8,53.3,53.1C364.4,296.5,340.2,320.3,311.1,320.3z"/>
			<path class="st3" d="M357,266.1c-0.8-24.6-21-44.3-45.9-44.8c-25.4-0.9-45.6,21.5-46.1,46.1c-0.8,25.1,21,45.4,46.1,46.1
				c24.9,0.5,45.1-20.4,45.9-44.9c0-0.2,0-0.5,0-1.1C357,267.1,357,266.7,357,266.1z M311.1,296.2c-15.8,0.3-28.5-13.3-28.8-28.8
				c-0.3-16,13.3-28.5,28.8-28.8c16-0.5,28.7,13,29,28.8C339.8,283.2,327.4,296,311.1,296.2z"/>
			<path class="st3" d="M285.9,267.4h4.4c-0.5-11.9,9.9-20.7,20.8-21.3V242C297.2,241.8,286,253.7,285.9,267.4z"/>
		</g>
	</g>
</g>
</svg>
