<?xml version="1.0" encoding="utf-8"?>
<!-- Generator: Adobe Illustrator 21.1.0, SVG Export Plug-In . SVG Version: 6.00 Build 0)  -->
<svg version="1.1" id="Capa_1" xmlns="http://www.w3.org/2000/svg" xmlns:xlink="http://www.w3.org/1999/xlink" x="0px" y="0px"
	 viewBox="0 0 500 500" style="enable-background:new 0 0 500 500;" xml:space="preserve">
<style type="text/css">
	.st0{fill:#FFFFFF;}
	.st1{fill:#ABBEE2;}
	.st2{fill:#3CAF77;}
	.st3{fill:#EFAE3A;}
	.st4{fill:#777586;}
</style>
<g>
	<g>
		<g>
			<path class="st0" d="M486.6,250.1c0-131.1-105.8-236.9-236.7-236.9C119.2,13.2,13.4,119,13.4,250.1
				c0,130.3,105.8,236.7,236.4,236.7C380.8,486.9,486.6,380.5,486.6,250.1z"/>
		</g>
	</g>
	<g>
		<g>
			<g>
				<path class="st4" d="M390.7,332.1c-0.5,7.5-13.6,5.3-19,5.3c-14.4,0-29,0-43.9,0c-41.4,0-83.3,0-125.3,0c-28.3,0-56.9,0-85.2,0
					c-3.1,0-6.6-0.2-7.7-4.4c-0.8-2.2,0-5.9,0-8.5c0-16.1,0-32.4,0-48.9c0-34.9,0-69.7,0-105c0-3.4,0.3-7.7,5-7.7c1.9,0,4.2,0,6.3,0
					c12.1,0,24.1,0,36.5,0c73.3,0,146.2,0,219.7,0c6,0,13.6-1.5,13.6,6.4c0,12.7,0,25.4,0,37.8c0,38.6,0,76.6,0,115.3
					C390.7,325.3,390.7,328.6,390.7,332.1c0,12.5,19.7,12.5,19.7,0c0-29.9,0-59.9,0-89.9c0-18.8,0-37.9,0-56.7
					c0-13.6,2.2-28.5-10.3-37.6c-8.5-5.9-19-4.5-28.4-4.5c-14.4,0-29,0-43.9,0c-41.4,0-83.3,0-125.3,0c-28.3,0-56.9,0-85.2,0
					c-16,0-27.6,10.3-27.6,26.6c0,13.3,0,26.2,0,39.8c0,37.9,0,75.8,0,113.4c0,3,0,5.8,0,8.9c0,13.6,11.1,24.9,25.1,24.9
					c7.2,0,14.4,0,21.5,0c75.3,0,150.4,0,225.8,0c6.9,0,13.6,0,20.7,0c14.9,0,27-9.4,27.7-24.9C411.1,319.4,391.6,319.4,390.7,332.1
					z"/>
			</g>
			<rect x="109.3" y="198.9" class="st4" width="282" height="51.2"/>
			<g>
				<path class="st4" d="M125.1,288.4c38.1,0,75.8,0,114.1,0c12.8,0,12.8-19.8,0.3-19.8c-38.1,0-76.3,0-114.4,0
					C112.4,268.6,112.3,288.4,125.1,288.4L125.1,288.4z"/>
			</g>
			<g>
				<path class="st4" d="M125.1,321.3c38.1,0,75.8,0,114.1,0c12.8,0,12.8-19.8,0.3-19.8c-38.1,0-76.3,0-114.4,0
					C112.4,301.5,112.3,321.3,125.1,321.3L125.1,321.3z"/>
			</g>
			<g>
				<path class="st4" d="M287.8,321.3c5.5,0,11.4,0,17.6,0c5.3,0,9.9-4.5,9.9-9.9c0.3-5.3-4.1-9.9-9.6-9.9c-6,0-11.9,0-17.9,0
					c-5.3,0-9.9,4.2-9.9,9.7C277.9,316.7,282.4,321.3,287.8,321.3L287.8,321.3z"/>
			</g>
			<g>
				<path class="st4" d="M326.9,321.3c6.4,0,11.9,0,17.6,0c5.6,0,10.2-4.5,10.2-9.9c0-5.3-4.4-9.9-9.7-9.9c-5.9,0-11.4,0-17.2,0
					c-5.6,0-10.5,4.2-10.5,9.7C317.2,316.7,321.8,321.3,326.9,321.3L326.9,321.3z"/>
			</g>
		</g>
	</g>
</g>
</svg>
