<?xml version="1.0" encoding="utf-8"?>
<!-- Generator: Adobe Illustrator 21.1.0, SVG Export Plug-In . SVG Version: 6.00 Build 0)  -->
<svg version="1.1" id="Capa_1" xmlns="http://www.w3.org/2000/svg" xmlns:xlink="http://www.w3.org/1999/xlink" x="0px" y="0px"
	 viewBox="0 0 500 500" style="enable-background:new 0 0 500 500;" xml:space="preserve">
<style type="text/css">
	.st0{fill:#FFFFFF;}
	.st1{fill:#ABBEE2;}
	.st2{fill:#3CAF77;}
	.st3{fill:#EFAE3A;}
	.st4{fill:#777586;}
</style>
<g>
	<g>
		<g>
			<path class="st2" d="M309.6,253.4c0-15.7-12.2-28-27.3-28c-15.3,0-27.3,12.3-27.3,28c0,14.2,12,27.3,27.3,27.3
				C297.4,280.7,309.6,267.5,309.6,253.4z"/>
			<path class="st2" d="M333.4,194.7h-5.7l-4.3-9.4c-1.4-2.5-3.9-4.6-6.9-4.6h-54c-2.8,0-5,2.1-5.6,4.6l-4.8,9.4h-85.4
				c-3.5,0-6.2,1.9-6.2,6.3v104.5c0,3.5,2.7,6.3,6.2,6.3h166.8c3.5,0,6.3-2.8,6.3-6.3V201C339.7,196.6,336.9,194.7,333.4,194.7z
				 M238.4,209.5c0,1.1-0.6,1.4-1.7,1.4h-12.5c-0.7,0-2.5-0.3-2.5-1.4v-2.8c0-1.5,1.8-2.4,2.5-2.4h12.5c1.1,0,1.7,0.8,1.7,2.4V209.5
				z M282.3,294.8c-23.8,0-42.3-18.7-42.3-41.4c0-23.8,18.5-42.7,42.3-42.7c23.7,0,42.2,18.9,42.2,42.7
				C324.4,276.1,305.9,294.8,282.3,294.8z"/>
		</g>
	</g>
	<path class="st2" d="M249.8,51.3c-107.6,0-195.1,87-195.1,194.5c0,107.9,87.5,195.5,195.1,195.5c108.1,0,195.5-87.6,195.5-195.5
		C445.3,138.3,357.9,51.3,249.8,51.3z M249.8,416.4c-94,0-169.9-76.3-169.9-170.6c0-93.4,75.9-169.6,169.9-169.6
		c94.3,0,170.6,76.2,170.6,169.6C420.4,340.1,344.1,416.4,249.8,416.4z"/>
</g>
</svg>
