<?xml version="1.0" encoding="utf-8"?>
<!-- Generator: Adobe Illustrator 21.1.0, SVG Export Plug-In . SVG Version: 6.00 Build 0)  -->
<svg version="1.1" id="Capa_1" xmlns="http://www.w3.org/2000/svg" xmlns:xlink="http://www.w3.org/1999/xlink" x="0px" y="0px"
	 viewBox="0 0 500 500" style="enable-background:new 0 0 500 500;" xml:space="preserve">
<style type="text/css">
	.st0{fill:#FFFFFF;}
	.st1{fill:#ABBEE2;}
	.st2{fill:#3CAF77;}
	.st3{fill:#EFAE3A;}
	.st4{fill:#777586;}
</style>
<g>
	<g>
		<path class="st0" d="M479,250.1c0-131.3-106.1-236.9-236.8-236.9C111.4,13.2,5.4,118.8,5.4,250.1c0,130.3,106,236.7,236.8,236.7
			C372.9,486.9,479,380.5,479,250.1z"/>
	</g>
	<g>
		<g>
			<path class="st1" d="M242.2,130.3c-30.9,0-55.8,25.2-55.8,55.8c0,30.9,24.9,55.8,55.8,55.8c30.8,0,55.9-24.9,55.9-55.8
				C298.1,155.5,273,130.3,242.2,130.3z M242.2,147.8c0,3-2.5,5.2-5.2,5.3c-14.7,1.4-26.2,13.2-27.7,27.4c-0.4,3.1-2.4,5.5-5.4,5.5
				c-0.9,0-2,0-2.9,0c-2.9,0-5.3-2.3-5.1-5.5c0.4-22.6,18.5-40.6,41.1-41c1.9,0,3.3,0.9,4.4,2.2c0.5,0.6,0.8,1.9,0.8,3.3
				C242.2,146.1,242.2,146.7,242.2,147.8z"/>
			<g>
				<path class="st1" d="M225.2,352.9c0-0.3,0-0.8,0-1.2c3.7-22.4,7.1-44.5,10.6-66.9c-3-1.7-5.2-5-5.9-8.9c0-0.3,0-0.6,0-1.3
					c-0.3-0.5,0-0.8,0-1.3c0.7-4.2,3.8-8.3,8-9.7c-21.6-1.2-42.9-8.9-54.8-21.8c-31.4,0.5-49.4,37.6-49.8,103.2l0,0v1.9
					c0,5.3,6.7,10,15.2,10h81C226.9,357,225.6,354.9,225.2,352.9z"/>
				<path class="st1" d="M351.3,345.1c-0.5-66.1-18.5-103.1-50.5-103.2c-12.1,12.4-31.9,20.8-54.9,21.8c5.1,1.6,9.2,5.7,9.2,11
					c-0.5,4.4-2.8,8.3-6.4,10.3c3.6,22.6,7.1,44.6,10.8,66.7c0.2,2.8-1.2,5.3-4.2,5.3h80.8c8.2,0,15.2-4.7,15.2-10V345.1
					L351.3,345.1z"/>
			</g>
		</g>
	</g>
</g>
</svg>
