<?xml version="1.0" encoding="utf-8"?>
<!-- Generator: Adobe Illustrator 21.1.0, SVG Export Plug-In . SVG Version: 6.00 Build 0)  -->
<svg version="1.1" id="Capa_1" xmlns="http://www.w3.org/2000/svg" xmlns:xlink="http://www.w3.org/1999/xlink" x="0px" y="0px"
	 viewBox="0 0 500 500" style="enable-background:new 0 0 500 500;" xml:space="preserve">
<style type="text/css">
	.st0{fill:#FFFFFF;}
	.st1{fill:#ABBEE2;}
	.st2{fill:#3CAF77;}
	.st3{fill:#EFAE3A;}
	.st4{fill:#777586;}
</style>
<g>
	<path class="st2" d="M249.9,58.4c-107.4,0-195,87.1-195,194.8c0,106.7,87.6,194.4,195,194.4c108,0,195.3-87.7,195.3-194.4
		C445.1,145.5,357.8,58.4,249.9,58.4z M249.9,422.6c-93.8,0-169.9-76.4-169.9-169.3C79.9,159,156,83,249.9,83
		c94.1,0,170.3,76,170.3,170.3C420.2,346.2,343.9,422.6,249.9,422.6z"/>
	<path class="st2" d="M237.1,324c0-0.3,0-0.7,0-1c0-22.9,0-45.8,0-68.7c0-1-0.3-1.3-1.3-1.3c-5.1,0.1-10.2,0-15.3,0
		c-0.9,0-1.2-0.1-1.2-1.1c0-7.4,0-14.7,0-22.1c0-1,0.3-1.2,1.3-1.2c5.1,0,10.2,0,15.3,0c0.9,0,1.2-0.3,1.2-1.2
		c0-6.6-0.2-13.1,0.2-19.7c0.3-4.3,1-8.6,2.8-12.5c2.3-5.3,6.2-9,11.7-10.9c4.6-1.6,9.4-2.1,14.3-2.2c6.1,0,12.2,0,18.4,0
		c0.8,0,1.1,0.1,1.1,1c0,7.4,0,14.9,0,22.3c0,0.9-0.3,1.1-1.2,1.1c-4.4,0-8.8-0.1-13.1,0.1c-1.2,0.1-2.3,0.3-3.4,0.6
		c-2.5,0.8-3.7,2.6-3.9,5.1c-0.1,1.2-0.2,2.5-0.2,3.7c0,3.8,0,7.6-0.1,11.4c0,0.9,0.2,1.1,1.1,1.1c5.8,0,11.6,0,17.4,0
		c1.1,0,2.6-0.5,3.2,0.2c0.6,0.7-0.1,2.1-0.2,3.2c-0.7,6.7-1.4,13.4-2.1,20c-0.1,0.8-0.3,1-1.1,1c-5.7,0-11.5,0-17.2,0
		c-0.9,0-1.2,0.2-1.2,1.2c0,22.8,0,45.6,0,68.4c0,0.5,0,0.9,0,1.4C254.8,324,245.9,324,237.1,324z"/>
</g>
</svg>
