<?xml version="1.0" encoding="utf-8"?>
<!-- Generator: Adobe Illustrator 21.1.0, SVG Export Plug-In . SVG Version: 6.00 Build 0)  -->
<svg version="1.1" id="Capa_1" xmlns="http://www.w3.org/2000/svg" xmlns:xlink="http://www.w3.org/1999/xlink" x="0px" y="0px"
	 viewBox="0 0 500 500" style="enable-background:new 0 0 500 500;" xml:space="preserve">
<style type="text/css">
	.st0{fill:#FFFFFF;}
	.st1{fill:#ABBEE2;}
	.st2{fill:#3CAF77;}
	.st3{fill:#EFAE3A;}
	.st4{fill:#777586;}
</style>
<g>
	<path class="st2" d="M242.9,61.3C137,61.3,51.5,146.6,51.5,252.8c0,105.3,85.4,190.6,191.3,190.6c105.9,0,191.6-85.3,191.6-190.6
		C434.5,146.6,348.7,61.3,242.9,61.3z M242.9,418.9c-92.3,0-167.1-74.5-167.1-166.1c0-92.2,74.8-167.4,167.1-167.4
		c92.5,0,167.7,75.2,167.7,167.4C410.5,344.4,335.3,418.9,242.9,418.9z"/>
	<g>
		<path class="st2" d="M245.4,301c-24.4,0.1-43.9-19.3-44-43.7c0-24.4,19.3-43.9,43.7-44c24.4-0.1,43.9,19.3,44,43.7
			C289.2,281.5,269.8,301,245.4,301z M273.6,257.3c0-15.9-12.5-28.4-28.4-28.4s-28.3,12.5-28.3,28.5c0,15.7,12.5,28.1,28.1,28.2
			C261,285.6,273.6,273.1,273.6,257.3z"/>
		<path class="st2" d="M301.1,211.7c-0.1,5.7-4.8,10.3-10.4,10.2c-5.6-0.1-10.3-5-10.2-10.5c0.1-5.6,4.8-10.1,10.5-10.1
			C296.9,201.5,301.2,205.9,301.1,211.7z"/>
		<g>
			<path class="st2" d="M283.5,340h-76.3c-25.1,0-45.5-20.4-45.5-45.5v-76.3c0-25.1,20.4-45.5,45.5-45.5h76.3
				c25.1,0,45.5,20.4,45.5,45.5v76.3C329,319.6,308.6,340,283.5,340z M207.2,184.6c-18.5,0-33.6,15.1-33.6,33.6v76.3
				c0,18.5,15.1,33.6,33.6,33.6h76.3c18.5,0,33.6-15.1,33.6-33.6v-76.3c0-18.5-15.1-33.6-33.6-33.6H207.2z"/>
		</g>
	</g>
</g>
</svg>
