<?xml version="1.0" encoding="utf-8"?>
<!-- Generator: Adobe Illustrator 21.1.0, SVG Export Plug-In . SVG Version: 6.00 Build 0)  -->
<svg version="1.1" id="Capa_1" xmlns="http://www.w3.org/2000/svg" xmlns:xlink="http://www.w3.org/1999/xlink" x="0px" y="0px"
	 viewBox="0 0 500 500" style="enable-background:new 0 0 500 500;" xml:space="preserve">
<style type="text/css">
	.st0{fill:#FFFFFF;}
	.st1{fill:#ABBEE2;}
	.st2{fill:#3CAF77;}
	.st3{fill:#EFAE3A;}
	.st4{fill:#777586;}
</style>
<g>
	<g>
		<g>
			<path class="st4" d="M140.1,381.9H97.7l53.7,53.5V394C151.4,387.5,146,381.9,140.1,381.9z"/>
			<path class="st4" d="M472.7,183.8c-5.4-4.3-13.1-3.4-17.2,1.8l-74,94l-66.8,84.8c-2.3,2.3-2.7,4.7-2.7,7.7
				c0,3.6,1.3,7.4,4.5,10.2c5.4,4,13.1,3.1,18-2.3l46.9-60L474.9,201C479,195.8,477.6,187.7,472.7,183.8z"/>
			<path class="st4" d="M129.3,288.7h214.7c4.5,0,9,2.5,11.3,6.3l26.2-33.4V68.8c0-10.4-7.7-18.7-17.6-18.7H109.5
				c-9.9,0-17.1,8.3-17.1,18.7v127v173h47.8c13.1,0,23.9,11.3,23.9,25.7v48.1h199.9c9.9,0,17.6-8.3,17.6-19.2v-85.5l-43.8,55.7
				c-5,5.9-16.7,4.1-27.1-3.6c-7.2-6.3-12.2-13.8-12.2-19.6c0-2.3,0.9-4.3,1.8-5.9l39.2-49.6H129.3c-6.8,0-12.6-5.9-12.6-13.3
				C116.7,294.6,122.6,288.7,129.3,288.7z M269.2,98.8h76.7c6.3,0,12.2,5.2,12.2,12s-5.9,12.4-12.2,12.4h-76.7
				c-6.8,0-12.6-5.6-12.6-12.4S262.4,98.8,269.2,98.8z M269.2,136.9h76.7c6.3,0,12.2,5.2,12.2,11.9c0,6.8-5.9,12.2-12.2,12.2h-76.7
				c-6.8,0-12.6-5.4-12.6-12.2C256.5,142.1,262.4,136.9,269.2,136.9z M158.2,85.7c1.8-2.5,3.1-6.6,5.4-8.6c1.8-1.1,3.6-0.2,5.4-1.1
				c1.8-0.5,0.9-2.5,3.1-3.4c3.6-1.6,8.2,1.4,10.9,2.3c3.1,0.9,7.2,0,10.4,2.7c3.6,2.5,2.7,5.6,5.4,9.3c3.6,4.5,4.5,4,3.1,9.2
				c-0.4,3.6-0.9,7.2-2.3,9.9c0-0.2-0.4-0.7-0.4,0c0.9,1.6,1.4,4.3,1.4,7.2c0,3.4-0.9,7-1.8,8.1c-1.8,6.1-4.5,9.2-6.3,12.9
				c-3.6,5-5.9,9.3-14,9.3c-7.7,0-9.9-3.6-13.5-7.9c-2.3-3.8-5.4-7-6.8-13.8c-1.8-0.4-2.7-4.3-2.7-8.6c0-3.6,0.9-6.8,1.8-7.9
				c-0.5-0.4-0.5-1.3-0.5-2.5c-0.5-0.7-0.9-2.7-0.9-2.7c-0.5-1.4-1.8-4.1-2.3-5.4C153.3,89.5,155.5,88.9,158.2,85.7z M121.7,154.9
				c1.3-2,15.3-4.3,22.5-7c5.4-2,9-2.5,11.3-3.2v-1.3l0.5-1.8c1.4-0.9,4.1-1.6,4.1-1.6s0,0.9,0.4,2.7l17.6,5.4l18-5.4
				c0-1.8,0-2.7,0-2.7s3.2,0.7,4.5,1.6l0.4,2.7c2.3,1.1,5.9,1.3,11.7,3.6c7.2,2.7,21.2,5,22.5,7c1.4,2,1.8,5.6,0.9,9.3h0.5
				l-8.1,26.4c-14,10.4-31.6,16.9-50.5,16.9c-18,0-35.2-6.3-49.2-16.2l-9-27.1h0.9C119.8,160.3,120.7,157,121.7,154.9z M129.3,224.6
				h214.7c7.2,0,13.1,6.1,13.1,13.5c0,6.8-5.9,12.6-13.1,12.6H129.3c-6.8,0-12.6-5.9-12.6-12.6C116.7,230.7,122.6,224.6,129.3,224.6
				z"/>
		</g>
	</g>
</g>
</svg>
