<?xml version="1.0" encoding="utf-8"?>
<!-- Generator: Adobe Illustrator 21.1.0, SVG Export Plug-In . SVG Version: 6.00 Build 0)  -->
<svg version="1.1" id="Capa_1" xmlns="http://www.w3.org/2000/svg" xmlns:xlink="http://www.w3.org/1999/xlink" x="0px" y="0px"
	 viewBox="0 0 500 500" style="enable-background:new 0 0 500 500;" xml:space="preserve">
<style type="text/css">
	.st0{fill:#FFFFFF;}
	.st1{fill:#ABBEE2;}
	.st2{fill:#3CAF77;}
	.st3{fill:#EFAE3A;}
	.st4{fill:#777586;}
</style>
<g>
	<g>
		<g>
			<path class="st0" d="M392.2,287.6c-4-5.9-38.3-11.4-55.7-17.7c-14.3-5.9-23.7-6.8-28.7-8.7l-1.3-6.6c-3-2.2-9.7-4.3-9.7-4.3
				s-0.4,2.5-1.3,6.6l-43.1,13.4l-43.4-13.6c-0.6-4-1.3-6.5-1.3-6.5s-6.6,2.1-9.4,4.3l-0.6,4.1l-0.8,3.1c-5.5,1.7-14.2,3.3-27,8.1
				c-17.1,6.3-51.5,11.9-55,17.7c-2.9,4.1-4.1,12.7-2.4,22.2l-0.9-0.8l21.3,66.3c33.4,24.8,74.7,39.5,119.4,39.5
				c46.1,0,88.5-15.6,122.2-41.9l20.4-63.9l-0.7,0.8C395.9,300.4,394.4,291.7,392.2,287.6z"/>
			<path class="st0" d="M198,153.3c0,0,1.5,4.7,2.2,7.4c0,1.7,0,3.3,0.6,5.2c-2.5,3-3.9,10.6-3.9,18.8c0,11.1,2.5,19.9,5.5,21.2
				c4.7,17.4,11.7,24.2,17.6,32.7c8,11.6,13.4,20.6,32.3,20.6c19.9,0,25.6-10.6,33.9-23.4c4.6-8.7,11.6-16.2,15.5-30.7
				c2.7-2.9,4.5-11.2,4.5-20.4c0-6.8-0.9-13.3-2.7-16.9c0-1.4,0.4-1.3,0.9,0c2.7-6.8,3.9-16,5.7-23.4c2-13.3,0.7-12.2-7.5-22.9
				c-6.5-9.2-4.7-17.2-13.7-23.1c-7.2-6.2-17.3-4.1-25.3-6.2c-6.6-2.1-17.4-10-26.4-6.3c-5.6,2.8-3.8,7.7-7.4,9.8
				c-3.6,1.6-9.3,0-12.8,1.9c-6.2,5.2-9.2,15.4-13.7,20.4c-5.9,8.5-12.5,9.5-10.8,21.8C193.4,144.4,196.3,149.8,198,153.3z"/>
			<path class="st0" d="M492.8,261.7c1-6.5,0.2-12.3-1-15c-2.7-4-25.9-7.9-37.3-11.9c-9.8-3.8-16.1-4.6-19.7-6l-0.7-4.3
				c-2.1-1.4-6.4-2.8-6.4-2.8s-0.3,1.7-0.9,4.1l-29,9.5l-29.1-9.5c-0.6-2.4-0.7-4.1-0.7-4.1s-4.7,1.4-6.4,2.8L361,227l-0.6,2.4
				c-3.6,0.8-9.2,2.2-18.1,5.4c-9,3.3-25.9,6.3-33.2,9.3c3.2,2.2,5.5,4.7,7.1,8.9c20.6,6.2,41.6,11.4,62.6,17.4
				c19.7,5.9,27.6,14.9,26.3,34.8c0.9,1.9,0.9,4.1,0,6.6c-2,6.8-4.4,13.3-6.6,19.9c30.5-0.1,58.7-10.7,81-28l13.9-43L492.8,261.7z"
				/>
			<path class="st0" d="M361.3,156.6c0,0,0.9,3,1.5,4.6c0,1.4,0,2.5,0.3,3.5c-1.6,2.4-2.5,7.6-2.5,13c0,7.4,1.5,13.3,3.6,13.9
				c3.2,12,7.8,16.6,11.9,22.2c5.2,7.8,8.9,13.8,21.8,13.8c13.1,0,17.1-7,22.5-15.5c3.1-5.9,7.9-10.9,10.6-20.7
				c1.7-1.8,2.9-7.4,2.9-13.6c0-4.6-0.5-8.9-1.8-11.4c0-1,0.4-1,0.6,0c1.9-4.7,2.6-10.6,3.7-15.8c1.4-8.9,0.5-8.2-4.8-15.2
				c-4.4-6.2-3.2-11.6-9.3-15.7c-4.8-4-11.6-2.7-17-4.1c-4.3-1.3-11.5-6.8-17.8-3.9c-3.6,1.6-2.4,5-4.7,6.2c-2.4,1.1-6.3,0-8.7,1.6
				c-4.1,3.3-6.1,10.1-9.1,13.8c-4,5.5-8.6,6.3-7.3,14.4C358.2,150.5,360.1,154.4,361.3,156.6z"/>
			<path class="st0" d="M124,271.5c21.2-6.2,42.7-12.3,64.2-18.4c1.6-4.4,4.1-7.1,8.4-9.5c-8.4-3-23.7-5.7-32.5-8.9
				c-9.6-3.8-15.9-4.6-19.5-6l-0.9-4.3c-1.7-1.4-6.3-2.8-6.3-2.8s-0.2,1.7-1,4.1l-28.9,9.5l-28.9-9.5c-0.8-2.4-1.2-4.1-1.2-4.1
				s-4.4,1.4-6.3,2.8l-0.3,2.6l-0.6,2.4c-3.6,0.8-9.6,2.2-18.2,5.4c-11.5,3.9-34.3,7.9-36.9,11.9c-1.9,2.7-2.7,8.5-1.5,15l-0.4-0.9
				l14.3,44.6c22.4,16.6,49.8,26.4,80,26.4h0.3c-2.1-6.6-4.5-13.1-6.6-19.9c-0.9-2.5-0.6-4.4,0.3-6.5
				C100.4,288.7,105.8,276.9,124,271.5z"/>
			<path class="st0" d="M71.2,156.6c0,0,1,3,1.7,4.6c0,1.4,0,2.5,0.2,3.5c-1.6,2.4-2.7,7.6-2.7,13c0,7.4,1.7,13.3,3.8,13.9
				c3.1,12,7.7,16.6,11.8,22.2c5.5,7.8,9,13.8,21.8,13.8c13.3,0,17-7,22.6-15.5c3.2-5.9,7.9-10.9,10.7-20.7
				c1.7-1.8,2.6-7.4,2.6-13.6c0-4.6-0.4-8.9-1.4-11.4c0-1,0.2-1,0.6,0c1.5-4.7,2.4-10.6,3.4-15.8c1.7-8.9,0.8-8.2-4.7-15.2
				c-4.4-6.2-3.3-11.6-9.2-15.7c-5.1-4-11.6-2.7-17-4.1c-4.5-1.3-11.6-6.8-17.9-3.9c-3.6,1.6-2.4,5-4.9,6.2c-2.5,1.1-6.3,0-8.5,1.6
				c-4.3,3.3-6.3,10.1-9.3,13.8c-3.9,5.5-8.6,6.3-7.3,14.4C68.2,150.5,70.1,154.4,71.2,156.6z"/>
		</g>
	</g>
</g>
</svg>
