<?xml version="1.0" encoding="utf-8"?>
<!-- Generator: Adobe Illustrator 21.1.0, SVG Export Plug-In . SVG Version: 6.00 Build 0)  -->
<svg version="1.1" id="Capa_1" xmlns="http://www.w3.org/2000/svg" xmlns:xlink="http://www.w3.org/1999/xlink" x="0px" y="0px"
	 viewBox="0 0 500 500" style="enable-background:new 0 0 500 500;" xml:space="preserve">
<style type="text/css">
	.st0{fill:#FFFFFF;}
	.st1{fill:#ABBEE2;}
	.st2{fill:#3CAF77;}
	.st3{fill:#EFAE3A;}
	.st4{fill:#777586;}
</style>
<g>
	<g>
		<path class="st0" d="M486.7,250.1c0-131.1-105.9-236.7-236.9-236.7c-130.4,0-236.6,105.6-236.6,236.7
			c0,130.3,106.2,236.7,236.6,236.7C380.8,486.8,486.7,380.4,486.7,250.1z"/>
	</g>
	<path class="st2" d="M352.3,207.1c-0.5-0.3-0.6-0.3-0.6-0.5c-33-23.8-65.3-47.5-97.9-71.4c-1.8-0.9-5.3-0.9-7.2,0
		c-16.8,12.5-33.4,24.8-50.4,37c-11.3,8.1-22.6,16.4-34,24.4c-3.5,2.7-7.1,5.2-10.3,7.8c-2.9,2-6.7,3.9-6.7,8.1c0,42,0,84,0,126v0.1
		c0,3.6,3,6.7,7,6.7c45.3,0,90.8,0,135.8,0c20,0,40,0,59.7,0c4,0,7.2-3.1,7.2-6.7c0-42.1,0-84,0-126.1l0,0
		C354.9,210.3,353.9,208.2,352.3,207.1z M340.9,216.1l-77.8,49.3c15.7,9.9,30.8,19.4,46.1,29.3c0.2,0.2,0.3,0.3,0.6,0.3
		c7.4,4.9,0.6,16.9-7.2,11.9c-17.5-11-34.8-22.1-52.2-33.2h-0.5l0,0c-17.2,11.1-34.8,22.2-52.4,33.2c-7.4,5-14.6-7-6.8-11.9
		c0,0,0.3-0.2,0.3-0.3c15.3-9.9,30.8-19.4,45.9-29.3l-77.6-49.3c30.4-21.9,60.9-43.9,91.1-66C280.5,172.2,310.8,194.1,340.9,216.1
		L340.9,216.1z"/>
</g>
</svg>
